<svg width="512" height="512" viewBox="0 0 512 512" fill="none" xmlns="http://www.w3.org/2000/svg">
<path d="M354.435 418.141C383.217 418.141 406.55 394.808 406.55 366.026V313.91H416.026C444.808 313.91 468.141 290.578 468.141 261.795C468.141 233.013 444.808 209.68 416.026 209.68H406.55V157.565C406.55 128.783 383.217 105.45 354.435 105.45H302.32V95.9745C302.32 67.1921 278.987 43.8594 250.205 43.8594C221.422 43.8594 198.09 67.1921 198.09 95.9745V105.45H145.974C117.192 105.45 93.8594 128.783 93.8594 157.565V209.68H103.335C132.117 209.68 155.45 233.013 155.45 261.795C155.45 290.578 132.117 313.91 103.335 313.91H93.8594V418.141H198.09V408.665C198.09 379.883 221.422 356.55 250.205 356.55C278.987 356.55 302.32 379.883 302.32 408.665V418.141H354.435Z" stroke="#67D55E" stroke-width="20"/>
</svg>
