<svg width="512" height="512" viewBox="0 0 512 512" fill="none" xmlns="http://www.w3.org/2000/svg">
<g clip-path="url(#clip0_305_490)">
<path d="M348.608 492C384.905 492 414.329 462.576 414.329 426.279V360.557H426.279C462.576 360.557 492 331.132 492 294.835C492 258.538 462.576 229.114 426.279 229.114H414.329V163.392C414.329 127.095 384.905 97.6709 348.608 97.6709H282.886V85.7215C282.886 49.4245 253.462 20 217.165 20C180.868 20 151.443 49.4245 151.443 85.7215V97.6709H85.7215C49.4245 97.6709 20 127.095 20 163.392V229.114H31.9494C68.2464 229.114 97.6709 258.538 97.6709 294.835C97.6709 331.132 68.2464 360.557 31.9494 360.557H20V492H151.443V480.051C151.443 443.754 180.868 414.329 217.165 414.329C253.462 414.329 282.886 443.754 282.886 480.051V492H348.608Z" stroke="#67D55E" stroke-width="40"/>
</g>
<defs>
<clipPath id="clip0_305_490">
<rect width="512" height="512" fill="white"/>
</clipPath>
</defs>
</svg>
